{
  "accessors": [
    {
      "bufferView": 2,
      "componentType": 5126,
      "count": 105,
      "max": [
        72.18071746826172,
        -1.7112300395965576,
        82.76119995117188
      ],
      "min": [
        -147.3986358642578,
        -148.63047790527344,
        -82.76117706298828
      ],
      "type": "VEC3"
    },
    {
      "bufferView": 2,
      "byteOffset": 1260,
      "componentType": 5126,
      "count": 105,
      "max": [
        1.0,
        1.0,
        1.0
      ],
      "min": [
        -1.0,
        -1.0,
        -1.0
      ],
      "type": "VEC3"
    },
    {
      "bufferView": 1,
      "componentType": 5126,
      "count": 105,
      "max": [
        0.999500036239624,
        0.971663773059845
      ],
      "min": [
        0.0005000000237487257,
        0.0005000000237487257
      ],
      "type": "VEC2"
    },
    {
      "bufferView": 0,
      "componentType": 5125,
      "count": 147,
      "type": "SCALAR"
    },
    {
      "bufferView": 2,
      "byteOffset": 2520,
      "componentType": 5126,
      "count": 1500,
      "max": [
        0.9835650324821472,
        150.55706787109375,
        75.97567749023438
      ],
      "min": [
        -0.9722041487693787,
        -6.3986029624938965,
        -7.276009559631348
      ],
      "type": "VEC3"
    },
    {
      "bufferView": 2,
      "byteOffset": 20520,
      "componentType": 5126,
      "count": 1500,
      "max": [
        1.0,
        1.0,
        1.0
      ],
      "min": [
        -1.0,
        -1.0,
        -1.0
      ],
      "type": "VEC3"
    },
    {
      "bufferView": 3,
      "componentType": 5126,
      "count": 1500,
      "max": [
        1.0,
        1.0,
        1.0,
        1.0
      ],
      "min": [
        -1.0,
        -1.0,
        -1.0,
        1.0
      ],
      "type": "VEC4"
    },
    {
      "bufferView": 1,
      "byteOffset": 840,
      "componentType": 5126,
      "count": 1500,
      "max": [
        0.9961026310920715,
        0.999500036239624
      ],
      "min": [
        0.0005000000237487257,
        0.0005000000237487257
      ],
      "type": "VEC2"
    },
    {
      "bufferView": 0,
      "byteOffset": 588,
      "componentType": 5125,
      "count": 3216,
      "type": "SCALAR"
    },
    {
      "bufferView": 2,
      "byteOffset": 38520,
      "componentType": 5126,
      "count": 136,
      "max": [
        1.8427400588989258,
        1.9931676387786865,
        1.53000009059906
      ],
      "min": [
        -1.1413699388504028,
        -5.140735626220703,
        -1.53000009059906
      ],
      "type": "VEC3"
    },
    {
      "bufferView": 2,
      "byteOffset": 40152,
      "componentType": 5126,
      "count": 136,
      "max": [
        1.0,
        1.0,
        1.0
      ],
      "min": [
        -1.0,
        -1.0,
        -1.0
      ],
      "type": "VEC3"
    },
    {
      "bufferView": 1,
      "byteOffset": 12840,
      "componentType": 5126,
      "count": 136,
      "max": [
        0.9942404627799988,
        0.999500036239624
      ],
      "min": [
        0.0005000000237487257,
        0.0005000000237487257
      ],
      "type": "VEC2"
    },
    {
      "bufferView": 0,
      "byteOffset": 13452,
      "componentType": 5125,
      "count": 312,
      "type": "SCALAR"
    },
    {
      "bufferView": 2,
      "byteOffset": 41784,
      "componentType": 5126,
      "count": 355,
      "max": [
        2.300414562225342,
        2.3054661750793457,
        0.38200005888938904
      ],
      "min": [
        -2.300414562225342,
        -1.3294869661331177,
        -0.38199999928474426
      ],
      "type": "VEC3"
    },
    {
      "bufferView": 2,
      "byteOffset": 46044,
      "componentType": 5126,
      "count": 355,
      "max": [
        1.0,
        1.0,
        1.0
      ],
      "min": [
        -1.0,
        -1.0,
        -1.0
      ],
      "type": "VEC3"
    },
    {
      "bufferView": 3,
      "byteOffset": 24000,
      "componentType": 5126,
      "count": 355,
      "max": [
        0.9519124627113342,
        1.0,
        0.9827089309692383,
        1.0
      ],
      "min": [
        -1.0,
        -1.0,
        -1.0,
        1.0
      ],
      "type": "VEC4"
    },
    {
      "bufferView": 1,
      "byteOffset": 13928,
      "componentType": 5126,
      "count": 355,
      "max": [
        0.999500036239624,
        0.9789469242095947
      ],
      "min": [
        0.0005000000237487257,
        0.0005000000237487257
      ],
      "type": "VEC2"
    },
    {
      "bufferView": 0,
      "byteOffset": 14700,
      "componentType": 5125,
      "count": 1152,
      "type": "SCALAR"
    },
    {
      "bufferView": 2,
      "byteOffset": 50304,
      "componentType": 5126,
      "count": 198,
      "max": [
        3.060237407684326,
        2.4243433475494385,
        2.346073865890503
      ],
      "min": [
        -3.060237407684326,
        -2.4243433475494385,
        -0.5841194987297058
      ],
      "type": "VEC3"
    },
    {
      "bufferView": 2,
      "byteOffset": 52680,
      "componentType": 5126,
      "count": 198,
      "max": [
        1.0,
        1.0,
        1.0
      ],
      "min": [
        -1.0,
        -1.0,
        -1.0
      ],
      "type": "VEC3"
    },
    {
      "bufferView": 3,
      "byteOffset": 29680,
      "componentType": 5126,
      "count": 198,
      "max": [
        1.0,
        0.7192185521125793,
        1.0,
        1.0
      ],
      "min": [
        -1.0,
        -1.0,
        -0.7931687235832214,
        1.0
      ],
      "type": "VEC4"
    },
    {
      "bufferView": 1,
      "byteOffset": 16768,
      "componentType": 5126,
      "count": 198,
      "max": [
        0.9991210103034973,
        0.999500036239624
      ],
      "min": [
        0.0005000000237487257,
        0.0005000000237487257
      ],
      "type": "VEC2"
    },
    {
      "bufferView": 0,
      "byteOffset": 19308,
      "componentType": 5125,
      "count": 540,
      "type": "SCALAR"
    },
    {
      "bufferView": 2,
      "byteOffset": 55056,
      "componentType": 5126,
      "count": 78,
      "max": [
        94.6982192993164,
        0.9028358459472656,
        86.4171142578125
      ],
      "min": [
        -151.31158447265625,
        -34.679443359375,
        -86.41712951660156
      ],
      "type": "VEC3"
    },
    {
      "bufferView": 2,
      "byteOffset": 55992,
      "componentType": 5126,
      "count": 78,
      "max": [
        1.0,
        0.9343172311782837,
        1.0
      ],
      "min": [
        -1.0,
        -0.9343174695968628,
        -1.0
      ],
      "type": "VEC3"
    },
    {
      "bufferView": 3,
      "byteOffset": 32848,
      "componentType": 5126,
      "count": 78,
      "max": [
        1.0,
        1.0,
        3.723870804606122e-06,
        1.0
      ],
      "min": [
        -1.0,
        -1.0,
        -0.9343174695968628,
        1.0
      ],
      "type": "VEC4"
    },
    {
      "bufferView": 1,
      "byteOffset": 18352,
      "componentType": 5126,
      "count": 78,
      "max": [
        0.8117175698280334,
        0.999500036239624
      ],
      "min": [
        0.0005000000237487257,
        0.0005000000237487257
      ],
      "type": "VEC2"
    },
    {
      "bufferView": 0,
      "byteOffset": 21468,
      "componentType": 5125,
      "count": 144,
      "type": "SCALAR"
    },
    {
      "bufferView": 2,
      "byteOffset": 56928,
      "componentType": 5126,
      "count": 96,
      "max": [
        1.07411527633667,
        9.071490287780762,
        15.122210502624512
      ],
      "min": [
        -1.0122534036636353,
        -3.338362693786621,
        -0.5900648832321167
      ],
      "type": "VEC3"
    },
    {
      "bufferView": 2,
      "byteOffset": 58080,
      "componentType": 5126,
      "count": 96,
      "max": [
        1.0,
        1.0,
        1.0
      ],
      "min": [
        -1.0,
        -1.0,
        -1.0
      ],
      "type": "VEC3"
    },
    {
      "bufferView": 1,
      "byteOffset": 18976,
      "componentType": 5126,
      "count": 96,
      "max": [
        0.999500036239624,
        0.9941113591194153
      ],
      "min": [
        0.0005000000237487257,
        0.0005000000237487257
      ],
      "type": "VEC2"
    },
    {
      "bufferView": 0,
      "byteOffset": 22044,
      "componentType": 5125,
      "count": 168,
      "type": "SCALAR"
    },
    {
      "bufferView": 2,
      "byteOffset": 59232,
      "componentType": 5126,
      "count": 123,
      "max": [
        3.7451672554016113,
        3.68826961517334,
        11.703073501586914
      ],
      "min": [
        -1.8369340896606445,
        -3.68826961517334,
        -1.1382160186767578
      ],
      "type": "VEC3"
    },
    {
      "bufferView": 2,
      "byteOffset": 60708,
      "componentType": 5126,
      "count": 123,
      "max": [
        1.0,
        0.9877180457115173,
        0.9999831914901733
      ],
      "min": [
        -0.9983020424842834,
        -0.9878395199775696,
        -0.0037416252307593822
      ],
      "type": "VEC3"
    },
    {
      "bufferView": 1,
      "byteOffset": 19744,
      "componentType": 5126,
      "count": 123,
      "max": [
        0.9722222089767456,
        0.9999999403953552
      ],
      "min": [
        -1.1589832305908203,
        0.0
      ],
      "type": "VEC2"
    },
    {
      "bufferView": 0,
      "byteOffset": 22716,
      "componentType": 5125,
      "count": 576,
      "type": "SCALAR"
    }
  ],
  "asset": {
    "extras": {
      "author": "Valger (https://sketchfab.com/Valger)",
      "license": "SKETCHFAB Standard (https://sketchfab.com/licenses)",
      "source": "https://sketchfab.com/3d-models/test-model-a-garage-4c16c9cff6d84c25be500b5ff9158cb9",
      "title": "TEST-MODEL: A garage."
    },
    "generator": "Sketchfab-16.51.0",
    "version": "2.0"
  },
  "bufferViews": [
    {
      "buffer": 0,
      "byteLength": 25020,
      "name": "floatBufferViews",
      "target": 34963
    },
    {
      "buffer": 0,
      "byteLength": 20728,
      "byteOffset": 25020,
      "byteStride": 8,
      "name": "floatBufferViews",
      "target": 34962
    },
    {
      "buffer": 0,
      "byteLength": 62184,
      "byteOffset": 45748,
      "byteStride": 12,
      "name": "floatBufferViews",
      "target": 34962
    },
    {
      "buffer": 0,
      "byteLength": 34096,
      "byteOffset": 107932,
      "byteStride": 16,
      "name": "floatBufferViews",
      "target": 34962
    }
  ],
  "buffers": [
    {
      "byteLength": 142028,
      "uri": "scene.bin"
    }
  ],
  "extensionsUsed": [
    "KHR_materials_clearcoat",
    "KHR_materials_transmission"
  ],
  "images": [
    {
      "uri": "textures/garage_baseColor.png"
    },
    {
      "uri": "textures/garage_metallicRoughness.png"
    },
    {
      "uri": "textures/dorr_mounts_baseColor.png"
    },
    {
      "uri": "textures/dorr_mounts_metallicRoughness.png"
    },
    {
      "uri": "textures/dorr_mounts_normal.png"
    },
    {
      "uri": "textures/lock_ears_baseColor.png"
    },
    {
      "uri": "textures/lock_arc_baseColor.png"
    },
    {
      "uri": "textures/lock_arc_metallicRoughness.png"
    },
    {
      "uri": "textures/lock_arc_normal.png"
    },
    {
      "uri": "textures/lock_body_baseColor.png"
    },
    {
      "uri": "textures/lock_body_metallicRoughness.png"
    },
    {
      "uri": "textures/lock_body_normal.png"
    },
    {
      "uri": "textures/garage_top_baseColor.png"
    },
    {
      "uri": "textures/garage_top_metallicRoughness.png"
    },
    {
      "uri": "textures/garage_top_normal.png"
    },
    {
      "uri": "textures/grip_baseColor.png"
    }
  ],
  "materials": [
    {
      "alphaMode": "BLEND",
      "doubleSided": true,
      "extensions": {
        "KHR_materials_clearcoat": {
          "clearcoatFactor": 1.0,
          "clearcoatRoughnessFactor": 0.0
        },
        "KHR_materials_transmission": {
          "transmissionFactor": 0.6363739398175259
        }
      },
      "name": "Cylinder003__0",
      "pbrMetallicRoughness": {
        "baseColorFactor": [
          0.005926070430513756,
          0.3417455923947124,
          0.003876667232639324,
          0.3636260601824742
        ],
        "metallicFactor": 0.0,
        "roughnessFactor": 0.6
      }
    },
    {
      "doubleSided": true,
      "name": "garage",
      "pbrMetallicRoughness": {
        "baseColorTexture": {
          "index": 0
        },
        "metallicRoughnessTexture": {
          "index": 1
        },
        "roughnessFactor": 0.8929713596497552
      }
    },
    {
      "doubleSided": true,
      "name": "dorr_mounts",
      "normalTexture": {
        "index": 4
      },
      "pbrMetallicRoughness": {
        "baseColorTexture": {
          "index": 2
        },
        "metallicRoughnessTexture": {
          "index": 3
        }
      }
    },
    {
      "doubleSided": true,
      "name": "lock_ears",
      "pbrMetallicRoughness": {
        "baseColorTexture": {
          "index": 5
        },
        "metallicFactor": 0.0,
        "roughnessFactor": 0.8929713596497552
      }
    },
    {
      "doubleSided": true,
      "name": "lock_arc",
      "normalTexture": {
        "index": 8
      },
      "pbrMetallicRoughness": {
        "baseColorTexture": {
          "index": 6
        },
        "metallicRoughnessTexture": {
          "index": 7
        }
      }
    },
    {
      "doubleSided": true,
      "name": "lock_body",
      "normalTexture": {
        "index": 11
      },
      "pbrMetallicRoughness": {
        "baseColorTexture": {
          "index": 9
        },
        "metallicRoughnessTexture": {
          "index": 10
        }
      }
    },
    {
      "doubleSided": true,
      "name": "garage_top",
      "normalTexture": {
        "index": 14
      },
      "pbrMetallicRoughness": {
        "baseColorTexture": {
          "index": 12
        },
        "metallicFactor": 0.0,
        "metallicRoughnessTexture": {
          "index": 13
        }
      }
    },
    {
      "doubleSided": true,
      "name": "grip",
      "pbrMetallicRoughness": {
        "baseColorTexture": {
          "index": 15
        },
        "metallicFactor": 0.0,
        "roughnessFactor": 0.8929713596497552
      }
    }
  ],
  "meshes": [
    {
      "name": "Box001_garage_0",
      "primitives": [
        {
          "attributes": {
            "NORMAL": 1,
            "POSITION": 0,
            "TEXCOORD_0": 2
          },
          "indices": 3,
          "material": 1,
          "mode": 4
        }
      ]
    },
    {
      "name": "Cylinder002_dorr mounts_0",
      "primitives": [
        {
          "attributes": {
            "NORMAL": 5,
            "POSITION": 4,
            "TANGENT": 6,
            "TEXCOORD_0": 7
          },
          "indices": 8,
          "material": 2,
          "mode": 4
        }
      ]
    },
    {
      "name": "Line001_lock ears_0",
      "primitives": [
        {
          "attributes": {
            "NORMAL": 10,
            "POSITION": 9,
            "TEXCOORD_0": 11
          },
          "indices": 12,
          "material": 3,
          "mode": 4
        }
      ]
    },
    {
      "name": "Circle001_lock arc_0",
      "primitives": [
        {
          "attributes": {
            "NORMAL": 14,
            "POSITION": 13,
            "TANGENT": 15,
            "TEXCOORD_0": 16
          },
          "indices": 17,
          "material": 4,
          "mode": 4
        }
      ]
    },
    {
      "name": "Box002_lock body_0",
      "primitives": [
        {
          "attributes": {
            "NORMAL": 19,
            "POSITION": 18,
            "TANGENT": 20,
            "TEXCOORD_0": 21
          },
          "indices": 22,
          "material": 5,
          "mode": 4
        }
      ]
    },
    {
      "name": "top_garage top_0",
      "primitives": [
        {
          "attributes": {
            "NORMAL": 24,
            "POSITION": 23,
            "TANGENT": 25,
            "TEXCOORD_0": 26
          },
          "indices": 27,
          "material": 6,
          "mode": 4
        }
      ]
    },
    {
      "name": "Line002_grip_0",
      "primitives": [
        {
          "attributes": {
            "NORMAL": 29,
            "POSITION": 28,
            "TEXCOORD_0": 30
          },
          "indices": 31,
          "material": 7,
          "mode": 4
        }
      ]
    },
    {
      "name": "Cylinder003__0",
      "primitives": [
        {
          "attributes": {
            "NORMAL": 33,
            "POSITION": 32,
            "TEXCOORD_0": 34
          },
          "indices": 35,
          "material": 0,
          "mode": 4
        }
      ]
    }
  ],
  "nodes": [
    {
      "children": [
        1
      ],
      "matrix": [
        1.0,
        0.0,
        0.0,
        0.0,
        0.0,
        2.220446049250313e-16,
        -1.0,
        0.0,
        0.0,
        1.0,
        2.220446049250313e-16,
        0.0,
        0.0,
        0.0,
        0.0,
        1.0
      ],
      "name": "Sketchfab_model"
    },
    {
      "children": [
        2
      ],
      "matrix": [
        0.02539999969303608,
        0.0,
        0.0,
        0.0,
        0.0,
        0.0,
        0.02539999969303608,
        0.0,
        0.0,
        -0.02539999969303608,
        0.0,
        0.0,
        0.0,
        0.0,
        0.0,
        1.0
      ],
      "name": "541306c3c28e4d019d5f1a0ebade40e1.fbx"
    },
    {
      "children": [
        3,
        5,
        8,
        11,
        14,
        16,
        18,
        21
      ],
      "name": "RootNode"
    },
    {
      "children": [
        4
      ],
      "matrix": [
        1.0,
        0.0,
        0.0,
        0.0,
        0.0,
        0.9999999999999867,
        1.6292068494294582e-07,
        0.0,
        0.0,
        -1.6292068494294582e-07,
        0.9999999999999867,
        0.0,
        -74.8663101196289,
        2.3529412746429443,
        1.0285032914225667e-07,
        1.0
      ],
      "name": "Box001"
    },
    {
      "mesh": 0,
      "name": "Box001_garage_0"
    },
    {
      "children": [
        6
      ],
      "matrix": [
        -0.9999999999999962,
        -1.2246467202362698e-16,
        8.742277669594044e-08,
        0.0,
        -8.742277669594012e-08,
        8.742277646245356e-08,
        -0.9999999999999925,
        0.0,
        -7.520277201870083e-15,
        -0.9999999999999962,
        -8.742277657347586e-08,
        0.0,
        -2.9351348876953125,
        -89.94349670410156,
        -2.288818359375e-05,
        1.0
      ],
      "name": "Cylinder002"
    },
    {
      "children": [
        7
      ],
      "matrix": [
        1.0,
        0.0,
        -0.0,
        0.0,
        0.0,
        1.0,
        0.0,
        0.0,
        0.0,
        0.0,
        1.0,
        0.0,
        -0.00567626953125,
        -72.07923126220703,
        -34.349830627441406,
        1.0
      ],
      "name": "Object_6"
    },
    {
      "mesh": 1,
      "name": "Cylinder002_dorr mounts_0"
    },
    {
      "children": [
        9
      ],
      "matrix": [
        1.0,
        0.0,
        0.0,
        0.0,
        0.0,
        2.220446049250313e-16,
        -1.0,
        0.0,
        0.0,
        1.0,
        2.220446049250313e-16,
        0.0,
        -103.1729965209961,
        -94.63752746582031,
        -1.3232231140136719e-05,
        1.0
      ],
      "name": "Line001"
    },
    {
      "children": [
        10
      ],
      "matrix": [
        1.0,
        0.0,
        -0.0,
        0.0,
        0.0,
        1.0,
        0.0,
        0.0,
        0.0,
        0.0,
        1.0,
        0.0,
        101.6395034790039,
        1.5737838745117188,
        0.0,
        1.0
      ],
      "name": "Object_9"
    },
    {
      "mesh": 2,
      "name": "Line001_lock ears_0"
    },
    {
      "children": [
        12
      ],
      "matrix": [
        1.6292068460987963e-07,
        0.0,
        0.9999999999999867,
        0.0,
        -4.371138822550499e-08,
        0.999999999999999,
        7.121489295963928e-15,
        0.0,
        -0.9999999999999858,
        -4.371138822550557e-08,
        1.6292068460987963e-07,
        0.0,
        -0.9030523300170898,
        -95.90654754638672,
        -0.002966613043099642,
        1.0
      ],
      "name": "Circle001"
    },
    {
      "children": [
        13
      ],
      "matrix": [
        1.0,
        0.0,
        -0.0,
        0.0,
        0.0,
        1.0,
        0.0,
        0.0,
        0.0,
        0.0,
        1.0,
        0.0,
        5.9604641222676946e-08,
        -0.4304962158203125,
        9.414691248821327e-14,
        1.0
      ],
      "name": "Object_12"
    },
    {
      "mesh": 3,
      "name": "Circle001_lock arc_0"
    },
    {
      "children": [
        15
      ],
      "matrix": [
        1.6292068460987963e-07,
        0.0,
        0.9999999999999867,
        0.0,
        -4.371138822550499e-08,
        0.999999999999999,
        7.121489295963928e-15,
        0.0,
        -0.9999999999999858,
        -4.371138822550557e-08,
        1.6292068460987963e-07,
        0.0,
        -2.764638740160308e-09,
        -99.82073211669922,
        0.06324337422847748,
        1.0
      ],
      "name": "Box002"
    },
    {
      "mesh": 4,
      "name": "Box002_lock body_0"
    },
    {
      "children": [
        17
      ],
      "matrix": [
        1.0,
        0.0,
        0.0,
        0.0,
        0.0,
        0.9999999999999867,
        1.6292068494294582e-07,
        0.0,
        0.0,
        -1.6292068494294582e-07,
        0.9999999999999867,
        0.0,
        -74.8663101196289,
        2.3529412746429443,
        1.0285032914225667e-07,
        1.0
      ],
      "name": "top"
    },
    {
      "mesh": 5,
      "name": "top_garage top_0"
    },
    {
      "children": [
        19
      ],
      "matrix": [
        1.599850058555603,
        0.0,
        0.0,
        0.0,
        0.0,
        3.552380741912671e-16,
        -1.599850058555603,
        0.0,
        0.0,
        1.599850058555603,
        3.552380741912671e-16,
        0.0,
        -1.1799486875534058,
        -83.49263000488281,
        -9.5367431640625e-07,
        1.0
      ],
      "name": "Line002"
    },
    {
      "children": [
        20
      ],
      "matrix": [
        1.0,
        0.0,
        0.0,
        0.0,
        0.0,
        -0.5000001153182535,
        0.8660253372054036,
        0.0,
        0.0,
        -0.8660253372054036,
        -0.5000001153182535,
        0.0,
        0.0,
        6.891293525695801,
        0.0,
        1.0
      ],
      "name": "Object_19"
    },
    {
      "mesh": 6,
      "name": "Line002_grip_0"
    },
    {
      "children": [
        22
      ],
      "matrix": [
        1.0,
        0.0,
        0.0,
        0.0,
        0.0,
        2.220446049250313e-16,
        -1.0,
        0.0,
        0.0,
        1.0,
        2.220446049250313e-16,
        0.0,
        -0.8262341022491455,
        -103.19064331054688,
        -0.09182918816804886,
        1.0
      ],
      "name": "Cylinder003"
    },
    {
      "mesh": 7,
      "name": "Cylinder003__0"
    }
  ],
  "samplers": [
    {
      "magFilter": 9729,
      "minFilter": 9987,
      "wrapS": 10497,
      "wrapT": 10497
    }
  ],
  "scene": 0,
  "scenes": [
    {
      "name": "Sketchfab_Scene",
      "nodes": [
        0
      ]
    }
  ],
  "textures": [
    {
      "sampler": 0,
      "source": 0
    },
    {
      "sampler": 0,
      "source": 1
    },
    {
      "sampler": 0,
      "source": 2
    },
    {
      "sampler": 0,
      "source": 3
    },
    {
      "sampler": 0,
      "source": 4
    },
    {
      "sampler": 0,
      "source": 5
    },
    {
      "sampler": 0,
      "source": 6
    },
    {
      "sampler": 0,
      "source": 7
    },
    {
      "sampler": 0,
      "source": 8
    },
    {
      "sampler": 0,
      "source": 9
    },
    {
      "sampler": 0,
      "source": 10
    },
    {
      "sampler": 0,
      "source": 11
    },
    {
      "sampler": 0,
      "source": 12
    },
    {
      "sampler": 0,
      "source": 13
    },
    {
      "sampler": 0,
      "source": 14
    },
    {
      "sampler": 0,
      "source": 15
    }
  ]
}
