{
  "accessors": [
    {
      "bufferView": 2,
      "componentType": 5126,
      "count": 4,
      "max": [
        2.6403775215148926,
        2.7363686561584473,
        0.0
      ],
      "min": [
        -2.6403775215148926,
        -2.7363686561584473,
        0.0
      ],
      "type": "VEC3"
    },
    {
      "bufferView": 2,
      "byteOffset": 48,
      "componentType": 5126,
      "count": 4,
      "max": [
        0.0,
        0.0,
        1.0
      ],
      "min": [
        0.0,
        0.0,
        1.0
      ],
      "type": "VEC3"
    },
    {
      "bufferView": 1,
      "componentType": 5126,
      "count": 4,
      "max": [
        1.0,
        1.0
      ],
      "min": [
        0.0,
        0.0
      ],
      "type": "VEC2"
    },
    {
      "bufferView": 1,
      "byteOffset": 32,
      "componentType": 5126,
      "count": 4,
      "max": [
        1.0,
        1.0
      ],
      "min": [
        0.0,
        0.0
      ],
      "type": "VEC2"
    },
    {
      "bufferView": 0,
      "componentType": 5125,
      "count": 6,
      "type": "SCALAR"
    },
    {
      "bufferView": 2,
      "byteOffset": 96,
      "componentType": 5126,
      "count": 3485,
      "max": [
        2.511874198913574,
        1.9694454669952393,
        2.994621992111206
      ],
      "min": [
        -2.3201050758361816,
        -2.03185772895813,
        -0.09630722552537918
      ],
      "type": "VEC3"
    },
    {
      "bufferView": 2,
      "byteOffset": 41916,
      "componentType": 5126,
      "count": 3485,
      "max": [
        0.9999998211860657,
        0.9999998211860657,
        0.9999997615814209
      ],
      "min": [
        -0.9999997615814209,
        -0.9999997615814209,
        -1.0
      ],
      "type": "VEC3"
    },
    {
      "bufferView": 1,
      "byteOffset": 64,
      "componentType": 5126,
      "count": 3485,
      "max": [
        0.9200664758682251,
        0.9986091256141663
      ],
      "min": [
        0.0013908956898376346,
        0.0013908956898376346
      ],
      "type": "VEC2"
    },
    {
      "bufferView": 1,
      "byteOffset": 27944,
      "componentType": 5126,
      "count": 3485,
      "max": [
        0.9200664758682251,
        0.9986091256141663
      ],
      "min": [
        0.0013908956898376346,
        0.0013908956898376346
      ],
      "type": "VEC2"
    },
    {
      "bufferView": 0,
      "byteOffset": 24,
      "componentType": 5125,
      "count": 17754,
      "type": "SCALAR"
    },
    {
      "bufferView": 2,
      "byteOffset": 83736,
      "componentType": 5126,
      "count": 150,
      "max": [
        2.3343584537506104,
        1.4070079326629639,
        1.1292868852615356
      ],
      "min": [
        -2.1120777130126953,
        -1.7212392091751099,
        0.7072464227676392
      ],
      "type": "VEC3"
    },
    {
      "bufferView": 2,
      "byteOffset": 85536,
      "componentType": 5126,
      "count": 150,
      "max": [
        0.7781009078025818,
        0.6650283336639404,
        1.0
      ],
      "min": [
        -0.7781773805618286,
        -0.7497190237045288,
        0.6278767585754395
      ],
      "type": "VEC3"
    },
    {
      "bufferView": 1,
      "byteOffset": 55824,
      "componentType": 5126,
      "count": 150,
      "max": [
        0.26785752177238464,
        0.9074594974517822
      ],
      "min": [
        0.19954979419708252,
        0.8196975588798523
      ],
      "type": "VEC2"
    },
    {
      "bufferView": 1,
      "byteOffset": 57024,
      "componentType": 5126,
      "count": 150,
      "max": [
        0.26785752177238464,
        0.9074594974517822
      ],
      "min": [
        0.19954979419708252,
        0.8196975588798523
      ],
      "type": "VEC2"
    },
    {
      "bufferView": 0,
      "byteOffset": 71040,
      "componentType": 5125,
      "count": 576,
      "type": "SCALAR"
    },
    {
      "bufferView": 2,
      "byteOffset": 87336,
      "componentType": 5126,
      "count": 3485,
      "max": [
        2.5312633514404297,
        1.9887499809265137,
        3.014141082763672
      ],
      "min": [
        -2.339094400405884,
        -2.051074981689453,
        -0.11573442816734314
      ],
      "type": "VEC3"
    },
    {
      "bufferView": 2,
      "byteOffset": 129156,
      "componentType": 5126,
      "count": 3485,
      "max": [
        0.9999829530715942,
        0.9999977946281433,
        1.0
      ],
      "min": [
        -0.999983012676239,
        -0.9999978542327881,
        -0.9999997615814209
      ],
      "type": "VEC3"
    },
    {
      "bufferView": 1,
      "byteOffset": 58224,
      "componentType": 5126,
      "count": 3485,
      "max": [
        0.9200664758682251,
        0.9986091256141663
      ],
      "min": [
        0.0013908956898376346,
        0.0013908956898376346
      ],
      "type": "VEC2"
    },
    {
      "bufferView": 0,
      "byteOffset": 73344,
      "componentType": 5125,
      "count": 17754,
      "type": "SCALAR"
    }
  ],
  "asset": {
    "extras": {
      "author": "P3D (https://sketchfab.com/PelpesElSabio)",
      "license": "CC-BY-4.0 (http://creativecommons.org/licenses/by/4.0/)",
      "source": "https://sketchfab.com/3d-models/cute-ghost-2c8c03bb0e5049529e653f9011a8fc90",
      "title": "Cute ghost"
    },
    "generator": "Sketchfab-14.20.0",
    "version": "2.0"
  },
  "bufferViews": [
    {
      "buffer": 0,
      "byteLength": 144360,
      "name": "floatBufferViews",
      "target": 34963
    },
    {
      "buffer": 0,
      "byteLength": 86104,
      "byteOffset": 144360,
      "byteStride": 8,
      "name": "floatBufferViews",
      "target": 34962
    },
    {
      "buffer": 0,
      "byteLength": 170976,
      "byteOffset": 230464,
      "byteStride": 12,
      "name": "floatBufferViews",
      "target": 34962
    }
  ],
  "buffers": [
    {
      "byteLength": 401440,
      "uri": "scene.bin"
    }
  ],
  "extensionsUsed": [
    "KHR_materials_unlit"
  ],
  "images": [
    {
      "uri": "textures/M_Ground_baseColor.png"
    },
    {
      "uri": "textures/M_Ghost_baseColor.png"
    }
  ],
  "materials": [
    {
      "alphaMode": "BLEND",
      "doubleSided": true,
      "extensions": {
        "KHR_materials_unlit": {}
      },
      "name": "M_Ground",
      "pbrMetallicRoughness": {
        "baseColorTexture": {
          "index": 0
        },
        "metallicFactor": 0.0
      }
    },
    {
      "alphaMode": "BLEND",
      "doubleSided": true,
      "extensions": {
        "KHR_materials_unlit": {}
      },
      "name": "M_Ghost",
      "pbrMetallicRoughness": {
        "baseColorTexture": {
          "index": 1
        },
        "metallicFactor": 0.0
      }
    },
    {
      "extensions": {
        "KHR_materials_unlit": {}
      },
      "name": "Outline",
      "pbrMetallicRoughness": {
        "baseColorFactor": [
          0.12202571333094585,
          0.014935892870259397,
          0.005170039008049634,
          1.0
        ],
        "metallicFactor": 0.0
      }
    }
  ],
  "meshes": [
    {
      "name": "Ground_M_Ground_0",
      "primitives": [
        {
          "attributes": {
            "NORMAL": 1,
            "POSITION": 0,
            "TEXCOORD_0": 2,
            "TEXCOORD_1": 3
          },
          "indices": 4,
          "material": 0,
          "mode": 4
        }
      ]
    },
    {
      "name": "Ghost_M_Ghost_0",
      "primitives": [
        {
          "attributes": {
            "NORMAL": 6,
            "POSITION": 5,
            "TEXCOORD_0": 7,
            "TEXCOORD_1": 8
          },
          "indices": 9,
          "material": 1,
          "mode": 4
        }
      ]
    },
    {
      "name": "Ghost.001_M_Ghost_0",
      "primitives": [
        {
          "attributes": {
            "NORMAL": 11,
            "POSITION": 10,
            "TEXCOORD_0": 12,
            "TEXCOORD_1": 13
          },
          "indices": 14,
          "material": 1,
          "mode": 4
        }
      ]
    },
    {
      "name": "Ghost.002_Outline_0",
      "primitives": [
        {
          "attributes": {
            "NORMAL": 16,
            "POSITION": 15,
            "TEXCOORD_0": 17
          },
          "indices": 18,
          "material": 2,
          "mode": 4
        }
      ]
    }
  ],
  "nodes": [
    {
      "children": [
        1
      ],
      "matrix": [
        1.0,
        0.0,
        0.0,
        0.0,
        0.0,
        2.220446049250313e-16,
        -1.0,
        0.0,
        0.0,
        1.0,
        2.220446049250313e-16,
        0.0,
        0.0,
        0.0,
        0.0,
        1.0
      ],
      "name": "Sketchfab_model"
    },
    {
      "children": [
        2
      ],
      "matrix": [
        0.009999999776482582,
        0.0,
        0.0,
        0.0,
        0.0,
        0.0,
        0.009999999776482582,
        0.0,
        0.0,
        -0.009999999776482582,
        0.0,
        0.0,
        0.0,
        0.0,
        0.0,
        1.0
      ],
      "name": "e273dff10eb94a56936cad7d675649fe.fbx"
    },
    {
      "children": [
        3,
        5,
        7,
        9
      ],
      "name": "RootNode"
    },
    {
      "children": [
        4
      ],
      "matrix": [
        100.0,
        0.0,
        0.0,
        0.0,
        0.0,
        -1.629206793918314e-05,
        -99.99999999999868,
        0.0,
        0.0,
        99.99999999999868,
        -1.629206793918314e-05,
        0.0,
        0.0,
        -1.7850651741027832,
        0.0,
        1.0
      ],
      "name": "Ground"
    },
    {
      "mesh": 0,
      "name": "Ground_M_Ground_0"
    },
    {
      "children": [
        6
      ],
      "matrix": [
        100.0,
        0.0,
        0.0,
        0.0,
        0.0,
        -1.629206793918314e-05,
        -99.99999999999868,
        0.0,
        0.0,
        99.99999999999868,
        -1.629206793918314e-05,
        0.0,
        0.0,
        0.0,
        0.0,
        1.0
      ],
      "name": "Ghost"
    },
    {
      "mesh": 1,
      "name": "Ghost_M_Ghost_0"
    },
    {
      "children": [
        8
      ],
      "matrix": [
        100.0,
        0.0,
        0.0,
        0.0,
        0.0,
        -1.629206793918314e-05,
        -99.99999999999868,
        0.0,
        0.0,
        99.99999999999868,
        -1.629206793918314e-05,
        0.0,
        0.0,
        0.0,
        0.0,
        1.0
      ],
      "name": "Ghost.001"
    },
    {
      "mesh": 2,
      "name": "Ghost.001_M_Ghost_0"
    },
    {
      "children": [
        10
      ],
      "matrix": [
        100.0,
        0.0,
        0.0,
        0.0,
        0.0,
        -1.629206793918314e-05,
        -99.99999999999868,
        0.0,
        0.0,
        99.99999999999868,
        -1.629206793918314e-05,
        0.0,
        0.0,
        0.0,
        0.0,
        1.0
      ],
      "name": "Ghost.002"
    },
    {
      "mesh": 3,
      "name": "Ghost.002_Outline_0"
    }
  ],
  "samplers": [
    {
      "magFilter": 9729,
      "minFilter": 9987,
      "wrapS": 10497,
      "wrapT": 10497
    }
  ],
  "scene": 0,
  "scenes": [
    {
      "name": "Sketchfab_Scene",
      "nodes": [
        0
      ]
    }
  ],
  "textures": [
    {
      "sampler": 0,
      "source": 0
    },
    {
      "sampler": 0,
      "source": 1
    }
  ]
}
