{
  "accessors": [
    {
      "bufferView": 2,
      "componentType": 5126,
      "count": 54683,
      "max": [
        5.479957580566406,
        -0.19701071083545685,
        1.7284404039382935
      ],
      "min": [
        0.2158370018005371,
        -2.580368995666504,
        -1.1325478553771973
      ],
      "type": "VEC3"
    },
    {
      "bufferView": 2,
      "byteOffset": 656196,
      "componentType": 5126,
      "count": 54683,
      "max": [
        0.999994158744812,
        1.0,
        0.9999996423721313
      ],
      "min": [
        -0.9997835755348206,
        -0.9999964833259583,
        -0.9999998807907104
      ],
      "type": "VEC3"
    },
    {
      "bufferView": 1,
      "componentType": 5126,
      "count": 54683,
      "max": [
        0.9919390082359314,
        0.9920420050621033
      ],
      "min": [
        0.007942000404000282,
        0.008165000006556511
      ],
      "type": "VEC2"
    },
    {
      "bufferView": 0,
      "componentType": 5125,
      "count": 282588,
      "type": "SCALAR"
    },
    {
      "bufferView": 2,
      "byteOffset": 1312392,
      "componentType": 5126,
      "count": 63007,
      "max": [
        5.479865550994873,
        -0.19701071083545685,
        1.716278076171875
      ],
      "min": [
        0.19872932136058807,
        -2.564577341079712,
        -1.1984059810638428
      ],
      "type": "VEC3"
    },
    {
      "bufferView": 2,
      "byteOffset": 2068476,
      "componentType": 5126,
      "count": 63007,
      "max": [
        0.999976396560669,
        1.0,
        0.9999997019767761
      ],
      "min": [
        -0.999993622303009,
        -0.9999997019767761,
        -0.9999998807907104
      ],
      "type": "VEC3"
    },
    {
      "bufferView": 1,
      "byteOffset": 437464,
      "componentType": 5126,
      "count": 63007,
      "max": [
        0.9919390082359314,
        0.9920650124549866
      ],
      "min": [
        0.007985999807715416,
        0.008181000128388405
      ],
      "type": "VEC2"
    },
    {
      "bufferView": 0,
      "byteOffset": 1130352,
      "componentType": 5125,
      "count": 320031,
      "type": "SCALAR"
    },
    {
      "bufferView": 2,
      "byteOffset": 2824560,
      "componentType": 5126,
      "count": 65532,
      "max": [
        5.450552463531494,
        -0.19701071083545685,
        1.6740285158157349
      ],
      "min": [
        0.1840469092130661,
        -2.598771572113037,
        -1.0561554431915283
      ],
      "type": "VEC3"
    },
    {
      "bufferView": 2,
      "byteOffset": 3610944,
      "componentType": 5126,
      "count": 65532,
      "max": [
        0.9999397993087769,
        0.9999998807907104,
        0.9999876618385315
      ],
      "min": [
        -0.9999819397926331,
        -0.9999988079071045,
        -0.9999639391899109
      ],
      "type": "VEC3"
    },
    {
      "bufferView": 1,
      "byteOffset": 941520,
      "componentType": 5126,
      "count": 65532,
      "max": [
        0.9919059872627258,
        0.9920570254325867
      ],
      "min": [
        0.007942999713122845,
        0.008073999546468258
      ],
      "type": "VEC2"
    },
    {
      "bufferView": 0,
      "byteOffset": 2410476,
      "componentType": 5125,
      "count": 270762,
      "type": "SCALAR"
    },
    {
      "bufferView": 2,
      "byteOffset": 4397328,
      "componentType": 5126,
      "count": 7661,
      "max": [
        5.231937885284424,
        -0.2145458161830902,
        1.3826353549957275
      ],
      "min": [
        0.20086358487606049,
        -2.3932993412017822,
        -0.9489941000938416
      ],
      "type": "VEC3"
    },
    {
      "bufferView": 2,
      "byteOffset": 4489260,
      "componentType": 5126,
      "count": 7661,
      "max": [
        0.9997478127479553,
        0.9960801005363464,
        0.9999996423721313
      ],
      "min": [
        -0.9999517202377319,
        -0.9999850392341614,
        -0.9997095465660095
      ],
      "type": "VEC3"
    },
    {
      "bufferView": 1,
      "byteOffset": 1465776,
      "componentType": 5126,
      "count": 7661,
      "max": [
        0.9902139902114868,
        0.9919779896736145
      ],
      "min": [
        0.007942999713122845,
        0.21434099972248077
      ],
      "type": "VEC2"
    },
    {
      "bufferView": 0,
      "byteOffset": 3493524,
      "componentType": 5125,
      "count": 35790,
      "type": "SCALAR"
    },
    {
      "bufferView": 2,
      "byteOffset": 4581192,
      "componentType": 5126,
      "count": 38487,
      "max": [
        5.480050086975098,
        -0.19701071083545685,
        1.6102038621902466
      ],
      "min": [
        0.18639607727527618,
        -2.5845377445220947,
        -1.0541611909866333
      ],
      "type": "VEC3"
    },
    {
      "bufferView": 2,
      "byteOffset": 5043036,
      "componentType": 5126,
      "count": 38487,
      "max": [
        0.9998460412025452,
        0.9999998211860657,
        0.9999973773956299
      ],
      "min": [
        -0.999993622303009,
        -0.9999915361404419,
        -0.9999858736991882
      ],
      "type": "VEC3"
    },
    {
      "bufferView": 1,
      "byteOffset": 1527064,
      "componentType": 5126,
      "count": 38487,
      "max": [
        0.9919390082359314,
        0.992061972618103
      ],
      "min": [
        0.007934999652206898,
        0.010494999587535858
      ],
      "type": "VEC2"
    },
    {
      "bufferView": 0,
      "byteOffset": 3636684,
      "componentType": 5125,
      "count": 151941,
      "type": "SCALAR"
    },
    {
      "bufferView": 2,
      "byteOffset": 5504880,
      "componentType": 5126,
      "count": 10352,
      "max": [
        5.379290580749512,
        -0.19701071083545685,
        1.485761284828186
      ],
      "min": [
        0.1840469092130661,
        -2.592923402786255,
        -1.0513782501220703
      ],
      "type": "VEC3"
    },
    {
      "bufferView": 2,
      "byteOffset": 5629104,
      "componentType": 5126,
      "count": 10352,
      "max": [
        0.9994751811027527,
        0.9993070363998413,
        0.9999655485153198
      ],
      "min": [
        -0.9998564720153809,
        -0.9998894333839417,
        -0.9997139573097229
      ],
      "type": "VEC3"
    },
    {
      "bufferView": 1,
      "byteOffset": 1834960,
      "componentType": 5126,
      "count": 10352,
      "max": [
        0.9916759729385376,
        0.9919419884681702
      ],
      "min": [
        0.008059999905526638,
        0.016214000061154366
      ],
      "type": "VEC2"
    },
    {
      "bufferView": 0,
      "byteOffset": 4244448,
      "componentType": 5125,
      "count": 24510,
      "type": "SCALAR"
    },
    {
      "bufferView": 2,
      "byteOffset": 5753328,
      "componentType": 5126,
      "count": 5639,
      "max": [
        5.414409160614014,
        -0.19701071083545685,
        1.5758992433547974
      ],
      "min": [
        0.20135191082954407,
        -2.592923402786255,
        -1.0537029504776
      ],
      "type": "VEC3"
    },
    {
      "bufferView": 2,
      "byteOffset": 5820996,
      "componentType": 5126,
      "count": 5639,
      "max": [
        0.9991971254348755,
        0.9995496869087219,
        0.9999852180480957
      ],
      "min": [
        -0.9999790787696838,
        -0.999850332736969,
        -0.9997139573097229
      ],
      "type": "VEC3"
    },
    {
      "bufferView": 1,
      "byteOffset": 1917776,
      "componentType": 5126,
      "count": 5639,
      "max": [
        0.9910839796066284,
        0.9916980266571045
      ],
      "min": [
        0.008302999660372734,
        0.008326999843120575
      ],
      "type": "VEC2"
    },
    {
      "bufferView": 0,
      "byteOffset": 4342488,
      "componentType": 5125,
      "count": 7896,
      "type": "SCALAR"
    },
    {
      "bufferView": 2,
      "byteOffset": 5888664,
      "componentType": 5126,
      "count": 312,
      "max": [
        5.220712661743164,
        -0.2311331033706665,
        1.3578987121582031
      ],
      "min": [
        0.22362248599529266,
        -2.586198568344116,
        -1.0536577701568604
      ],
      "type": "VEC3"
    },
    {
      "bufferView": 2,
      "byteOffset": 5892408,
      "componentType": 5126,
      "count": 312,
      "max": [
        0.9828299880027771,
        0.9881568551063538,
        0.9953117966651917
      ],
      "min": [
        -0.9940412044525146,
        -0.9977205991744995,
        -0.9941971898078918
      ],
      "type": "VEC3"
    },
    {
      "bufferView": 1,
      "byteOffset": 1962888,
      "componentType": 5126,
      "count": 312,
      "max": [
        0.9873300194740295,
        0.9902269840240479
      ],
      "min": [
        0.00981099996715784,
        0.8080040216445923
      ],
      "type": "VEC2"
    },
    {
      "bufferView": 0,
      "byteOffset": 4374072,
      "componentType": 5125,
      "count": 342,
      "type": "SCALAR"
    },
    {
      "bufferView": 2,
      "byteOffset": 5896152,
      "componentType": 5126,
      "count": 4367,
      "max": [
        5.44295597076416,
        -0.19701051712036133,
        0.6182313561439514
      ],
      "min": [
        0.4492018520832062,
        -0.19701071083545685,
        -1.1792548894882202
      ],
      "type": "VEC3"
    },
    {
      "bufferView": 2,
      "byteOffset": 5948556,
      "componentType": 5126,
      "count": 4367,
      "max": [
        0.970650315284729,
        1.0,
        0.9989694356918335
      ],
      "min": [
        -0.986261785030365,
        -0.9994440078735352,
        -0.9986341595649719
      ],
      "type": "VEC3"
    },
    {
      "bufferView": 1,
      "byteOffset": 1965384,
      "componentType": 5126,
      "count": 4367,
      "max": [
        0.0,
        0.0
      ],
      "min": [
        0.0,
        0.0
      ],
      "type": "VEC2"
    },
    {
      "bufferView": 0,
      "byteOffset": 4375440,
      "componentType": 5125,
      "count": 23367,
      "type": "SCALAR"
    }
  ],
  "asset": {
    "extras": {
      "author": "jtressle (https://sketchfab.com/jtressle)",
      "license": "CC-BY-4.0 (http://creativecommons.org/licenses/by/4.0/)",
      "source": "https://sketchfab.com/3d-models/tucker-sno-cat-at-skihaus-in-steamboat-springs-d00f2fd4358d40f28a6201d387dead1a",
      "title": "Tucker Sno-cat at SkiHaus in Steamboat Springs"
    },
    "generator": "Sketchfab-12.59.0",
    "version": "2.0"
  },
  "bufferViews": [
    {
      "buffer": 0,
      "byteLength": 4468908,
      "name": "floatBufferViews",
      "target": 34963
    },
    {
      "buffer": 0,
      "byteLength": 2000320,
      "byteOffset": 4468908,
      "byteStride": 8,
      "name": "floatBufferViews",
      "target": 34962
    },
    {
      "buffer": 0,
      "byteLength": 6000960,
      "byteOffset": 6469228,
      "byteStride": 12,
      "name": "floatBufferViews",
      "target": 34962
    }
  ],
  "buffers": [
    {
      "byteLength": 12470188,
      "uri": "scene.bin"
    }
  ],
  "extensionsUsed": [
    "KHR_materials_unlit"
  ],
  "images": [
    {
      "uri": "textures/material0000_baseColor.jpeg"
    },
    {
      "uri": "textures/material0001_baseColor.jpeg"
    },
    {
      "uri": "textures/material0002_baseColor.jpeg"
    },
    {
      "uri": "textures/material0003_baseColor.jpeg"
    },
    {
      "uri": "textures/material0004_baseColor.jpeg"
    },
    {
      "uri": "textures/material0005_baseColor.jpeg"
    },
    {
      "uri": "textures/material0006_baseColor.jpeg"
    }
  ],
  "materials": [
    {
      "doubleSided": true,
      "extensions": {
        "KHR_materials_unlit": {}
      },
      "name": "material0000",
      "pbrMetallicRoughness": {
        "baseColorTexture": {
          "index": 0
        },
        "metallicFactor": 0.0
      }
    },
    {
      "doubleSided": true,
      "extensions": {
        "KHR_materials_unlit": {}
      },
      "name": "material0001",
      "pbrMetallicRoughness": {
        "baseColorTexture": {
          "index": 1
        },
        "metallicFactor": 0.0
      }
    },
    {
      "doubleSided": true,
      "extensions": {
        "KHR_materials_unlit": {}
      },
      "name": "material0002",
      "pbrMetallicRoughness": {
        "baseColorTexture": {
          "index": 2
        },
        "metallicFactor": 0.0
      }
    },
    {
      "doubleSided": true,
      "extensions": {
        "KHR_materials_unlit": {}
      },
      "name": "material0003",
      "pbrMetallicRoughness": {
        "baseColorTexture": {
          "index": 3
        },
        "metallicFactor": 0.0
      }
    },
    {
      "doubleSided": true,
      "extensions": {
        "KHR_materials_unlit": {}
      },
      "name": "material0004",
      "pbrMetallicRoughness": {
        "baseColorTexture": {
          "index": 4
        },
        "metallicFactor": 0.0
      }
    },
    {
      "doubleSided": true,
      "extensions": {
        "KHR_materials_unlit": {}
      },
      "name": "material0005",
      "pbrMetallicRoughness": {
        "baseColorTexture": {
          "index": 5
        },
        "metallicFactor": 0.0
      }
    },
    {
      "doubleSided": true,
      "extensions": {
        "KHR_materials_unlit": {}
      },
      "name": "material0006",
      "pbrMetallicRoughness": {
        "baseColorTexture": {
          "index": 6
        },
        "metallicFactor": 0.0
      }
    }
  ],
  "meshes": [
    {
      "name": "Object_0",
      "primitives": [
        {
          "attributes": {
            "NORMAL": 1,
            "POSITION": 0,
            "TEXCOORD_0": 2
          },
          "indices": 3,
          "material": 0,
          "mode": 4
        }
      ]
    },
    {
      "name": "Object_1",
      "primitives": [
        {
          "attributes": {
            "NORMAL": 5,
            "POSITION": 4,
            "TEXCOORD_0": 6
          },
          "indices": 7,
          "material": 1,
          "mode": 4
        }
      ]
    },
    {
      "name": "Object_2",
      "primitives": [
        {
          "attributes": {
            "NORMAL": 9,
            "POSITION": 8,
            "TEXCOORD_0": 10
          },
          "indices": 11,
          "material": 2,
          "mode": 4
        }
      ]
    },
    {
      "name": "Object_3",
      "primitives": [
        {
          "attributes": {
            "NORMAL": 13,
            "POSITION": 12,
            "TEXCOORD_0": 14
          },
          "indices": 15,
          "material": 2,
          "mode": 4
        }
      ]
    },
    {
      "name": "Object_4",
      "primitives": [
        {
          "attributes": {
            "NORMAL": 17,
            "POSITION": 16,
            "TEXCOORD_0": 18
          },
          "indices": 19,
          "material": 3,
          "mode": 4
        }
      ]
    },
    {
      "name": "Object_5",
      "primitives": [
        {
          "attributes": {
            "NORMAL": 21,
            "POSITION": 20,
            "TEXCOORD_0": 22
          },
          "indices": 23,
          "material": 4,
          "mode": 4
        }
      ]
    },
    {
      "name": "Object_6",
      "primitives": [
        {
          "attributes": {
            "NORMAL": 25,
            "POSITION": 24,
            "TEXCOORD_0": 26
          },
          "indices": 27,
          "material": 5,
          "mode": 4
        }
      ]
    },
    {
      "name": "Object_7",
      "primitives": [
        {
          "attributes": {
            "NORMAL": 29,
            "POSITION": 28,
            "TEXCOORD_0": 30
          },
          "indices": 31,
          "material": 6,
          "mode": 4
        }
      ]
    },
    {
      "name": "Object_8",
      "primitives": [
        {
          "attributes": {
            "NORMAL": 33,
            "POSITION": 32,
            "TEXCOORD_0": 34
          },
          "indices": 35,
          "material": 0,
          "mode": 4
        }
      ]
    }
  ],
  "nodes": [
    {
      "children": [
        1
      ],
      "matrix": [
        1.0,
        0.0,
        0.0,
        0.0,
        0.0,
        -1.0,
        -4.440892098500626e-16,
        0.0,
        0.0,
        4.440892098500626e-16,
        -1.0,
        0.0,
        0.0,
        -1.1328737735748295,
        1.6629081964492796,
        1.0
      ],
      "name": "Sketchfab_model"
    },
    {
      "children": [
        2,
        3,
        4,
        5,
        6,
        7,
        8,
        9,
        10
      ],
      "name": "snowcat.obj.cleaner.materialmerger.gles"
    },
    {
      "mesh": 0,
      "name": "Object_2"
    },
    {
      "mesh": 1,
      "name": "Object_3"
    },
    {
      "mesh": 2,
      "name": "Object_4"
    },
    {
      "mesh": 3,
      "name": "Object_5"
    },
    {
      "mesh": 4,
      "name": "Object_6"
    },
    {
      "mesh": 5,
      "name": "Object_7"
    },
    {
      "mesh": 6,
      "name": "Object_8"
    },
    {
      "mesh": 7,
      "name": "Object_9"
    },
    {
      "mesh": 8,
      "name": "Object_10"
    }
  ],
  "samplers": [
    {
      "magFilter": 9729,
      "minFilter": 9987,
      "wrapS": 10497,
      "wrapT": 10497
    }
  ],
  "scene": 0,
  "scenes": [
    {
      "name": "Sketchfab_Scene",
      "nodes": [
        0
      ]
    }
  ],
  "textures": [
    {
      "sampler": 0,
      "source": 0
    },
    {
      "sampler": 0,
      "source": 1
    },
    {
      "sampler": 0,
      "source": 2
    },
    {
      "sampler": 0,
      "source": 3
    },
    {
      "sampler": 0,
      "source": 4
    },
    {
      "sampler": 0,
      "source": 5
    },
    {
      "sampler": 0,
      "source": 6
    }
  ]
}
