{
  "accessors": [
    {
      "bufferView": 2,
      "componentType": 5126,
      "count": 65532,
      "max": [
        2.392646074295044,
        3.424489736557007,
        1.8867770433425903
      ],
      "min": [
        -2.481515884399414,
        -2.8563356399536133,
        -0.10972881317138672
      ],
      "type": "VEC3"
    },
    {
      "bufferView": 2,
      "byteOffset": 786384,
      "componentType": 5126,
      "count": 65532,
      "max": [
        0.999999463558197,
        0.9999964237213135,
        1.0
      ],
      "min": [
        -0.9999997019767761,
        -0.9998266100883484,
        -1.0
      ],
      "type": "VEC3"
    },
    {
      "bufferView": 1,
      "componentType": 5126,
      "count": 65532,
      "max": [
        0.9977364540100098,
        0.997836172580719
      ],
      "min": [
        0.0021200552582740784,
        0.35194867849349976
      ],
      "type": "VEC2"
    },
    {
      "bufferView": 0,
      "componentType": 5125,
      "count": 283110,
      "type": "SCALAR"
    },
    {
      "bufferView": 2,
      "byteOffset": 1572768,
      "componentType": 5126,
      "count": 65532,
      "max": [
        2.392505645751953,
        3.4243276119232178,
        1.9061975479125977
      ],
      "min": [
        -2.4817590713500977,
        -2.8567936420440674,
        -0.005465507507324219
      ],
      "type": "VEC3"
    },
    {
      "bufferView": 2,
      "byteOffset": 2359152,
      "componentType": 5126,
      "count": 65532,
      "max": [
        0.9999770522117615,
        0.9999999403953552,
        1.0
      ],
      "min": [
        -0.9999596476554871,
        -0.9991649389266968,
        -0.9971355199813843
      ],
      "type": "VEC3"
    },
    {
      "bufferView": 1,
      "byteOffset": 524256,
      "componentType": 5126,
      "count": 65532,
      "max": [
        0.9977855682373047,
        0.908011794090271
      ],
      "min": [
        0.0021147788502275944,
        0.37219834327697754
      ],
      "type": "VEC2"
    },
    {
      "bufferView": 0,
      "byteOffset": 1132440,
      "componentType": 5125,
      "count": 360870,
      "type": "SCALAR"
    },
    {
      "bufferView": 2,
      "byteOffset": 3145536,
      "componentType": 5126,
      "count": 65532,
      "max": [
        2.39268159866333,
        3.4244534969329834,
        1.8808422088623047
      ],
      "min": [
        -2.4814348220825195,
        -2.8567490577697754,
        0.0069446563720703125
      ],
      "type": "VEC3"
    },
    {
      "bufferView": 2,
      "byteOffset": 3931920,
      "componentType": 5126,
      "count": 65532,
      "max": [
        0.9975014925003052,
        0.9999834299087524,
        1.0
      ],
      "min": [
        -0.9995136260986328,
        -0.9987784028053284,
        -0.931468665599823
      ],
      "type": "VEC3"
    },
    {
      "bufferView": 1,
      "byteOffset": 1048512,
      "componentType": 5126,
      "count": 65532,
      "max": [
        0.9973207712173462,
        0.9979207515716553
      ],
      "min": [
        0.00217229500412941,
        0.5275627374649048
      ],
      "type": "VEC2"
    },
    {
      "bufferView": 0,
      "byteOffset": 2575920,
      "componentType": 5125,
      "count": 367236,
      "type": "SCALAR"
    },
    {
      "bufferView": 2,
      "byteOffset": 4718304,
      "componentType": 5126,
      "count": 65532,
      "max": [
        1.7560845613479614,
        1.835343599319458,
        1.9132080078125
      ],
      "min": [
        -2.481678009033203,
        -2.856830358505249,
        0.16548778116703033
      ],
      "type": "VEC3"
    },
    {
      "bufferView": 2,
      "byteOffset": 5504688,
      "componentType": 5126,
      "count": 65532,
      "max": [
        0.9999848008155823,
        0.9999921321868896,
        1.0
      ],
      "min": [
        -0.9998735189437866,
        -0.9998906254768372,
        -0.9228787422180176
      ],
      "type": "VEC3"
    },
    {
      "bufferView": 1,
      "byteOffset": 1572768,
      "componentType": 5126,
      "count": 65532,
      "max": [
        0.9973199963569641,
        0.997897207736969
      ],
      "min": [
        0.0020894459448754787,
        0.5910329222679138
      ],
      "type": "VEC2"
    },
    {
      "bufferView": 0,
      "byteOffset": 4044864,
      "componentType": 5125,
      "count": 369792,
      "type": "SCALAR"
    },
    {
      "bufferView": 2,
      "byteOffset": 6291072,
      "componentType": 5126,
      "count": 27333,
      "max": [
        2.2469406127929688,
        3.269599437713623,
        1.7102442979812622
      ],
      "min": [
        -2.481365919113159,
        -2.5604426860809326,
        0.005625247955322266
      ],
      "type": "VEC3"
    },
    {
      "bufferView": 2,
      "byteOffset": 6619068,
      "componentType": 5126,
      "count": 27333,
      "max": [
        0.9674477577209473,
        0.9994367957115173,
        1.0
      ],
      "min": [
        -0.9936277866363525,
        -0.9922043085098267,
        -0.800837516784668
      ],
      "type": "VEC3"
    },
    {
      "bufferView": 1,
      "byteOffset": 2097024,
      "componentType": 5126,
      "count": 27333,
      "max": [
        0.8832934498786926,
        0.717571496963501
      ],
      "min": [
        0.002195298671722412,
        0.5176891684532166
      ],
      "type": "VEC2"
    },
    {
      "bufferView": 0,
      "byteOffset": 5524032,
      "componentType": 5125,
      "count": 152046,
      "type": "SCALAR"
    }
  ],
  "asset": {
    "extras": {
      "author": "b_t_s (https://sketchfab.com/b_t_s)",
      "license": "CC-BY-4.0 (http://creativecommons.org/licenses/by/4.0/)",
      "source": "https://sketchfab.com/3d-models/old-tree-trunk-by-the-frozen-river-6a37098ec0fa416aa87e3e55c2c706d7",
      "title": "Old Tree Trunk by the frozen river"
    },
    "generator": "Sketchfab-12.66.0",
    "version": "2.0"
  },
  "bufferViews": [
    {
      "buffer": 0,
      "byteLength": 6132216,
      "name": "floatBufferViews",
      "target": 34963
    },
    {
      "buffer": 0,
      "byteLength": 2315688,
      "byteOffset": 6132216,
      "byteStride": 8,
      "name": "floatBufferViews",
      "target": 34962
    },
    {
      "buffer": 0,
      "byteLength": 6947064,
      "byteOffset": 8447904,
      "byteStride": 12,
      "name": "floatBufferViews",
      "target": 34962
    }
  ],
  "buffers": [
    {
      "byteLength": 15394968,
      "uri": "scene.bin"
    }
  ],
  "extensionsUsed": [
    "KHR_materials_unlit"
  ],
  "images": [
    {
      "uri": "textures/main_baseColor.jpeg"
    }
  ],
  "materials": [
    {
      "doubleSided": true,
      "extensions": {
        "KHR_materials_unlit": {}
      },
      "name": "main",
      "pbrMetallicRoughness": {
        "baseColorTexture": {
          "index": 0
        },
        "metallicFactor": 0.0
      }
    }
  ],
  "meshes": [
    {
      "name": "Object_0",
      "primitives": [
        {
          "attributes": {
            "NORMAL": 1,
            "POSITION": 0,
            "TEXCOORD_0": 2
          },
          "indices": 3,
          "material": 0,
          "mode": 4
        }
      ]
    },
    {
      "name": "Object_1",
      "primitives": [
        {
          "attributes": {
            "NORMAL": 5,
            "POSITION": 4,
            "TEXCOORD_0": 6
          },
          "indices": 7,
          "material": 0,
          "mode": 4
        }
      ]
    },
    {
      "name": "Object_2",
      "primitives": [
        {
          "attributes": {
            "NORMAL": 9,
            "POSITION": 8,
            "TEXCOORD_0": 10
          },
          "indices": 11,
          "material": 0,
          "mode": 4
        }
      ]
    },
    {
      "name": "Object_3",
      "primitives": [
        {
          "attributes": {
            "NORMAL": 13,
            "POSITION": 12,
            "TEXCOORD_0": 14
          },
          "indices": 15,
          "material": 0,
          "mode": 4
        }
      ]
    },
    {
      "name": "Object_4",
      "primitives": [
        {
          "attributes": {
            "NORMAL": 17,
            "POSITION": 16,
            "TEXCOORD_0": 18
          },
          "indices": 19,
          "material": 0,
          "mode": 4
        }
      ]
    }
  ],
  "nodes": [
    {
      "children": [
        1
      ],
      "matrix": [
        1.0,
        0.0,
        0.0,
        0.0,
        0.0,
        2.220446049250313e-16,
        -1.0,
        0.0,
        0.0,
        1.0,
        2.220446049250313e-16,
        0.0,
        0.0,
        0.0,
        0.0,
        1.0
      ],
      "name": "Sketchfab_model"
    },
    {
      "children": [
        2,
        3,
        4,
        5,
        6
      ],
      "name": "scaniverse-model.obj.cleaner.materialmerger.gles"
    },
    {
      "mesh": 0,
      "name": "Object_2"
    },
    {
      "mesh": 1,
      "name": "Object_3"
    },
    {
      "mesh": 2,
      "name": "Object_4"
    },
    {
      "mesh": 3,
      "name": "Object_5"
    },
    {
      "mesh": 4,
      "name": "Object_6"
    }
  ],
  "samplers": [
    {
      "magFilter": 9729,
      "minFilter": 9987,
      "wrapS": 10497,
      "wrapT": 10497
    }
  ],
  "scene": 0,
  "scenes": [
    {
      "name": "Sketchfab_Scene",
      "nodes": [
        0
      ]
    }
  ],
  "textures": [
    {
      "sampler": 0,
      "source": 0
    }
  ]
}
