{
  "accessors": [
    {
      "bufferView": 2,
      "componentType": 5126,
      "count": 65532,
      "max": [
        1.262915015220642,
        1.032982349395752,
        -2.7906415462493896
      ],
      "min": [
        -4.488410472869873,
        -1.3524821996688843,
        -6.280462265014648
      ],
      "type": "VEC3"
    },
    {
      "bufferView": 2,
      "byteOffset": 786384,
      "componentType": 5126,
      "count": 65532,
      "max": [
        0.9998399019241333,
        0.9999998211860657,
        0.9999474883079529
      ],
      "min": [
        -0.999996542930603,
        -0.9878852963447571,
        -0.9999958276748657
      ],
      "type": "VEC3"
    },
    {
      "bufferView": 1,
      "componentType": 5126,
      "count": 65532,
      "max": [
        0.9995604753494263,
        0.9530302882194519
      ],
      "min": [
        0.015790412202477455,
        0.0037328600883483887
      ],
      "type": "VEC2"
    },
    {
      "bufferView": 0,
      "componentType": 5125,
      "count": 307818,
      "type": "SCALAR"
    },
    {
      "bufferView": 2,
      "byteOffset": 1572768,
      "componentType": 5126,
      "count": 65532,
      "max": [
        1.5793533325195313,
        0.9565384387969971,
        -2.7983927726745605
      ],
      "min": [
        -4.532570838928223,
        -1.3250181674957275,
        -6.635897636413574
      ],
      "type": "VEC3"
    },
    {
      "bufferView": 2,
      "byteOffset": 2359152,
      "componentType": 5126,
      "count": 65532,
      "max": [
        0.9999862313270569,
        0.9999986290931702,
        0.9999883770942688
      ],
      "min": [
        -0.9999837279319763,
        -0.998665452003479,
        -0.9999940991401672
      ],
      "type": "VEC3"
    },
    {
      "bufferView": 1,
      "byteOffset": 524256,
      "componentType": 5126,
      "count": 65532,
      "max": [
        0.9849177598953247,
        0.9350457191467285
      ],
      "min": [
        0.008807330392301083,
        0.0013963015517219901
      ],
      "type": "VEC2"
    },
    {
      "bufferView": 0,
      "byteOffset": 1231272,
      "componentType": 5125,
      "count": 303987,
      "type": "SCALAR"
    },
    {
      "bufferView": 2,
      "byteOffset": 3145536,
      "componentType": 5126,
      "count": 65532,
      "max": [
        1.5522656440734863,
        0.9685696363449097,
        -2.6092336177825928
      ],
      "min": [
        -4.161958694458008,
        -1.4355976581573486,
        -6.643967628479004
      ],
      "type": "VEC3"
    },
    {
      "bufferView": 2,
      "byteOffset": 3931920,
      "componentType": 5126,
      "count": 65532,
      "max": [
        0.9999955892562866,
        0.9999898076057434,
        0.9999971985816956
      ],
      "min": [
        -0.9999837279319763,
        -0.9875432848930359,
        -0.999999463558197
      ],
      "type": "VEC3"
    },
    {
      "bufferView": 1,
      "byteOffset": 1048512,
      "componentType": 5126,
      "count": 65532,
      "max": [
        1.0,
        0.953350841999054
      ],
      "min": [
        0.009961908683180809,
        0.002331971423700452
      ],
      "type": "VEC2"
    },
    {
      "bufferView": 0,
      "byteOffset": 2447220,
      "componentType": 5125,
      "count": 304323,
      "type": "SCALAR"
    },
    {
      "bufferView": 2,
      "byteOffset": 4718304,
      "componentType": 5126,
      "count": 65532,
      "max": [
        1.5513312816619873,
        1.032982349395752,
        -2.629800796508789
      ],
      "min": [
        -4.479165077209473,
        -1.4214613437652588,
        -6.62056827545166
      ],
      "type": "VEC3"
    },
    {
      "bufferView": 2,
      "byteOffset": 5504688,
      "componentType": 5126,
      "count": 65532,
      "max": [
        0.9999914765357971,
        0.9999986290931702,
        0.9999954104423523
      ],
      "min": [
        -0.9999786019325256,
        -0.9889159798622131,
        -0.999999463558197
      ],
      "type": "VEC3"
    },
    {
      "bufferView": 1,
      "byteOffset": 1572768,
      "componentType": 5126,
      "count": 65532,
      "max": [
        1.0,
        0.9533576965332031
      ],
      "min": [
        0.01534990780055523,
        0.0026265953201800585
      ],
      "type": "VEC2"
    },
    {
      "bufferView": 0,
      "byteOffset": 3664512,
      "componentType": 5125,
      "count": 288267,
      "type": "SCALAR"
    },
    {
      "bufferView": 2,
      "byteOffset": 6291072,
      "componentType": 5126,
      "count": 65532,
      "max": [
        1.5793533325195313,
        1.025223970413208,
        -2.7397966384887695
      ],
      "min": [
        -4.4778971672058105,
        -1.3874080181121826,
        -6.610691070556641
      ],
      "type": "VEC3"
    },
    {
      "bufferView": 2,
      "byteOffset": 7077456,
      "componentType": 5126,
      "count": 65532,
      "max": [
        0.9999832510948181,
        0.9999985694885254,
        0.9999954104423523
      ],
      "min": [
        -0.999996542930603,
        -0.9946169257164001,
        -0.9999951720237732
      ],
      "type": "VEC3"
    },
    {
      "bufferView": 1,
      "byteOffset": 2097024,
      "componentType": 5126,
      "count": 65532,
      "max": [
        0.9992204904556274,
        0.9516735672950745
      ],
      "min": [
        5.0623013521544635e-05,
        0.004392155911773443
      ],
      "type": "VEC2"
    },
    {
      "bufferView": 0,
      "byteOffset": 4817580,
      "componentType": 5125,
      "count": 234897,
      "type": "SCALAR"
    },
    {
      "bufferView": 2,
      "byteOffset": 7863840,
      "componentType": 5126,
      "count": 28321,
      "max": [
        1.5513312816619873,
        1.030020833015442,
        -2.5959463119506836
      ],
      "min": [
        -4.507299423217773,
        -1.4443860054016113,
        -6.622054100036621
      ],
      "type": "VEC3"
    },
    {
      "bufferView": 2,
      "byteOffset": 8203692,
      "componentType": 5126,
      "count": 28321,
      "max": [
        0.9999787211418152,
        0.9999998211860657,
        0.9999825954437256
      ],
      "min": [
        -0.9999597668647766,
        -0.9993047714233398,
        -0.9999948143959045
      ],
      "type": "VEC3"
    },
    {
      "bufferView": 1,
      "byteOffset": 2621280,
      "componentType": 5126,
      "count": 28321,
      "max": [
        0.9946232438087463,
        0.9522475004196167
      ],
      "min": [
        0.004905849229544401,
        0.001980719855055213
      ],
      "type": "VEC2"
    },
    {
      "bufferView": 0,
      "byteOffset": 5757168,
      "componentType": 5125,
      "count": 60708,
      "type": "SCALAR"
    }
  ],
  "asset": {
    "extras": {
      "author": "Alexander Komendant (SashaRX) (https://sketchfab.com/Sasharx)",
      "license": "SKETCHFAB Standard (https://sketchfab.com/licenses)",
      "source": "https://sketchfab.com/3d-models/abandoned-snow-carraw-ac643ae6e6854b6bb3210bc1028fbe82",
      "title": "Abandoned Snow Car[RAW]"
    },
    "generator": "Sketchfab-15.49.0",
    "version": "2.0"
  },
  "bufferViews": [
    {
      "buffer": 0,
      "byteLength": 6000000,
      "name": "floatBufferViews",
      "target": 34963
    },
    {
      "buffer": 0,
      "byteLength": 2847848,
      "byteOffset": 6000000,
      "byteStride": 8,
      "name": "floatBufferViews",
      "target": 34962
    },
    {
      "buffer": 0,
      "byteLength": 8543544,
      "byteOffset": 8847848,
      "byteStride": 12,
      "name": "floatBufferViews",
      "target": 34962
    }
  ],
  "buffers": [
    {
      "byteLength": 17391392,
      "uri": "scene.bin"
    }
  ],
  "extensionsUsed": [
    "KHR_materials_unlit"
  ],
  "images": [
    {
      "uri": "textures/material0_baseColor.jpeg"
    }
  ],
  "materials": [
    {
      "doubleSided": true,
      "extensions": {
        "KHR_materials_unlit": {}
      },
      "name": "material0",
      "pbrMetallicRoughness": {
        "baseColorTexture": {
          "index": 0
        },
        "metallicFactor": 0.0
      }
    }
  ],
  "meshes": [
    {
      "name": "Model_material0_0",
      "primitives": [
        {
          "attributes": {
            "NORMAL": 1,
            "POSITION": 0,
            "TEXCOORD_0": 2
          },
          "indices": 3,
          "material": 0,
          "mode": 4
        }
      ]
    },
    {
      "name": "Model_material0_0",
      "primitives": [
        {
          "attributes": {
            "NORMAL": 5,
            "POSITION": 4,
            "TEXCOORD_0": 6
          },
          "indices": 7,
          "material": 0,
          "mode": 4
        }
      ]
    },
    {
      "name": "Model_material0_0",
      "primitives": [
        {
          "attributes": {
            "NORMAL": 9,
            "POSITION": 8,
            "TEXCOORD_0": 10
          },
          "indices": 11,
          "material": 0,
          "mode": 4
        }
      ]
    },
    {
      "name": "Model_material0_0",
      "primitives": [
        {
          "attributes": {
            "NORMAL": 13,
            "POSITION": 12,
            "TEXCOORD_0": 14
          },
          "indices": 15,
          "material": 0,
          "mode": 4
        }
      ]
    },
    {
      "name": "Model_material0_0",
      "primitives": [
        {
          "attributes": {
            "NORMAL": 17,
            "POSITION": 16,
            "TEXCOORD_0": 18
          },
          "indices": 19,
          "material": 0,
          "mode": 4
        }
      ]
    },
    {
      "name": "Model_material0_0",
      "primitives": [
        {
          "attributes": {
            "NORMAL": 21,
            "POSITION": 20,
            "TEXCOORD_0": 22
          },
          "indices": 23,
          "material": 0,
          "mode": 4
        }
      ]
    }
  ],
  "nodes": [
    {
      "children": [
        1
      ],
      "matrix": [
        0.9954848885536194,
        0.003148340852931163,
        -0.09486763179302216,
        0.0,
        0.024135805666446686,
        -0.974995493888855,
        0.22091002762317635,
        0.0,
        -0.0918000191450119,
        -0.2222023159265516,
        -0.9706693291664124,
        0.0,
        0.0,
        0.0,
        0.0,
        1.0
      ],
      "name": "Sketchfab_model"
    },
    {
      "children": [
        2
      ],
      "matrix": [
        1.0,
        0.0,
        0.0,
        0.0,
        0.0,
        -1.0,
        0.0,
        0.0,
        0.0,
        0.0,
        -1.0,
        0.0,
        0.0,
        0.0,
        0.0,
        1.0
      ],
      "name": "AbandonedSnowCar.fbx"
    },
    {
      "children": [
        3
      ],
      "name": "RootNode"
    },
    {
      "children": [
        4,
        5,
        6,
        7,
        8,
        9
      ],
      "name": "Model"
    },
    {
      "mesh": 0,
      "name": "Model_material0_0"
    },
    {
      "mesh": 1,
      "name": "Model_material0_0"
    },
    {
      "mesh": 2,
      "name": "Model_material0_0"
    },
    {
      "mesh": 3,
      "name": "Model_material0_0"
    },
    {
      "mesh": 4,
      "name": "Model_material0_0"
    },
    {
      "mesh": 5,
      "name": "Model_material0_0"
    }
  ],
  "samplers": [
    {
      "magFilter": 9729,
      "minFilter": 9987,
      "wrapS": 10497,
      "wrapT": 10497
    }
  ],
  "scene": 0,
  "scenes": [
    {
      "name": "Sketchfab_Scene",
      "nodes": [
        0
      ]
    }
  ],
  "textures": [
    {
      "sampler": 0,
      "source": 0
    }
  ]
}
